<svg width="720" height="1480" viewBox="0 0 720 1480" fill="none" xmlns="http://www.w3.org/2000/svg">
  <defs>
    <linearGradient id="bg" x1="0" y1="0" x2="1" y2="1">
      <stop offset="0%" stop-color="#EEF2FF" />
      <stop offset="100%" stop-color="#E0EAFF" />
    </linearGradient>
    <linearGradient id="card" x1="0" y1="0" x2="1" y2="1">
      <stop offset="0%" stop-color="#DDEBFF" />
      <stop offset="100%" stop-color="#F5F8FF" />
    </linearGradient>
    <linearGradient id="accent" x1="0" y1="0" x2="1" y2="1">
      <stop offset="0%" stop-color="#60A5FA" />
      <stop offset="100%" stop-color="#818CF8" />
    </linearGradient>
  </defs>
  <rect x="20" y="20" width="680" height="1440" rx="60" fill="url(#bg)" stroke="#D1D5DB" stroke-width="2"/>
  <rect x="220" y="40" width="280" height="16" rx="8" fill="#CBD5E1"/>
  <circle cx="360" cy="74" r="6" fill="#94A3B8"/>

  <g>
    <rect x="60" y="120" width="600" height="280" rx="28" fill="url(#card)" />
    <rect x="80" y="140" width="120" height="32" rx="16" fill="#E2E8F0" />
    <rect x="80" y="188" width="400" height="40" rx="12" fill="#0F172A" />
    <rect x="80" y="240" width="460" height="18" rx="9" fill="#475569" opacity="0.7" />
    <rect x="80" y="268" width="420" height="18" rx="9" fill="#64748B" opacity="0.5" />
    <rect x="80" y="306" width="160" height="44" rx="12" fill="url(#accent)" />
    <rect x="252" y="306" width="160" height="44" rx="12" fill="#E2E8F0" />
    <rect x="424" y="306" width="120" height="44" rx="12" fill="#E2E8F0" />
  </g>

  <g>
    <rect x="60" y="436" width="600" height="320" rx="28" fill="white" stroke="#E5E7EB" />
    <rect x="84" y="460" width="532" height="28" rx="10" fill="#0F172A"/>
    <rect x="84" y="504" width="360" height="18" rx="9" fill="#64748B" opacity="0.6"/>
    <g>
      <rect x="84" y="546" width="168" height="150" rx="16" fill="#F8FAFC" stroke="#E5E7EB" />
      <rect x="264" y="546" width="168" height="150" rx="16" fill="#F8FAFC" stroke="#E5E7EB" />
      <rect x="444" y="546" width="168" height="150" rx="16" fill="#F8FAFC" stroke="#E5E7EB" />
    </g>
  </g>

  <g>
    <rect x="60" y="780" width="600" height="280" rx="28" fill="white" stroke="#E5E7EB" />
    <rect x="84" y="804" width="220" height="22" rx="10" fill="#0F172A" />
    <rect x="84" y="836" width="532" height="18" rx="9" fill="#94A3B8" opacity="0.6" />
    <rect x="84" y="862" width="460" height="18" rx="9" fill="#CBD5E1" opacity="0.6" />
    <rect x="84" y="900" width="260" height="44" rx="12" fill="url(#accent)" />
  </g>

  <g>
    <rect x="60" y="1080" width="600" height="280" rx="28" fill="white" stroke="#E5E7EB" />
    <rect x="84" y="1104" width="300" height="22" rx="10" fill="#0F172A" />
    <rect x="84" y="1136" width="220" height="18" rx="9" fill="#64748B" opacity="0.6" />
    <rect x="84" y="1170" width="532" height="72" rx="16" fill="#F1F5F9" />
  </g>
</svg>
